<svg xmlns="http://www.w3.org/2000/svg" xmlns:xlink="http://www.w3.org/1999/xlink" width="56.969" height="34.249" viewBox="0 0 56.969 34.249">
  <defs>
    <clipPath id="clip-path">
      <rect id="Rectangle_93" data-name="Rectangle 93" width="56.969" height="34.249" transform="translate(0 0)" fill="#809fb8"/>
    </clipPath>
  </defs>
  <g id="Groupe_298" data-name="Groupe 298" transform="translate(0 0)">
    <g id="Groupe_298-2" data-name="Groupe 298" clip-path="url(#clip-path)">
      <path id="Tracé_1682" data-name="Tracé 1682" d="M1,34.249a1,1,0,0,1-.827-1.562L5.729,24.5.172,16.311a1,1,0,1,1,1.656-1.124l5.937,8.752a1,1,0,0,1,0,1.123L1.828,33.811A1,1,0,0,1,1,34.249" fill="#809fb8"/>
      <path id="Tracé_1683" data-name="Tracé 1683" d="M55.969,2h-42a1,1,0,0,1,0-2h42a1,1,0,0,1,0,2" fill="#809fb8"/>
      <path id="Tracé_1684" data-name="Tracé 1684" d="M29.969,10h-16a1,1,0,1,1,0-2h16a1,1,0,0,1,0,2" fill="#809fb8"/>
      <path id="Tracé_1685" data-name="Tracé 1685" d="M45.969,18h-32a1,1,0,1,1,0-2h32a1,1,0,0,1,0,2" fill="#809fb8"/>
      <path id="Tracé_1686" data-name="Tracé 1686" d="M15.969,24h-2a1,1,0,1,1,0-2h2a1,1,0,0,1,0,2" fill="#809fb8"/>
      <path id="Tracé_1687" data-name="Tracé 1687" d="M25.969,24h-2a1,1,0,0,1,0-2h2a1,1,0,0,1,0,2" fill="#809fb8"/>
      <path id="Tracé_1688" data-name="Tracé 1688" d="M35.969,24h-2a1,1,0,0,1,0-2h2a1,1,0,0,1,0,2" fill="#809fb8"/>
      <path id="Tracé_1689" data-name="Tracé 1689" d="M45.969,24h-2a1,1,0,0,1,0-2h2a1,1,0,0,1,0,2" fill="#809fb8"/>
      <path id="Tracé_1690" data-name="Tracé 1690" d="M55.969,24h-2a1,1,0,0,1,0-2h2a1,1,0,0,1,0,2" fill="#809fb8"/>
      <path id="Tracé_1691" data-name="Tracé 1691" d="M15.969,30h-2a1,1,0,1,1,0-2h2a1,1,0,0,1,0,2" fill="#809fb8"/>
      <path id="Tracé_1692" data-name="Tracé 1692" d="M25.969,30h-2a1,1,0,0,1,0-2h2a1,1,0,0,1,0,2" fill="#809fb8"/>
      <path id="Tracé_1693" data-name="Tracé 1693" d="M35.969,30h-2a1,1,0,0,1,0-2h2a1,1,0,0,1,0,2" fill="#809fb8"/>
      <path id="Tracé_1694" data-name="Tracé 1694" d="M45.969,30h-2a1,1,0,0,1,0-2h2a1,1,0,0,1,0,2" fill="#809fb8"/>
      <path id="Tracé_1695" data-name="Tracé 1695" d="M55.969,30h-2a1,1,0,0,1,0-2h2a1,1,0,0,1,0,2" fill="#809fb8"/>
    </g>
  </g>
</svg>
