<svg id="Groupe_234" data-name="Groupe 234" xmlns="http://www.w3.org/2000/svg" xmlns:xlink="http://www.w3.org/1999/xlink" width="49.36" height="60" viewBox="0 0 49.36 60">
  <defs>
    <clipPath id="clip-path">
      <rect id="Rectangle_87" data-name="Rectangle 87" width="49.36" height="60" fill="#809fb8"/>
    </clipPath>
  </defs>
  <g id="Groupe_233" data-name="Groupe 233" clip-path="url(#clip-path)">
    <path id="Tracé_1658" data-name="Tracé 1658" d="M20.024,39a1,1,0,0,1-1-1V2a1,1,0,0,1,2,0V38a1,1,0,0,1-1,1" fill="#809fb8"/>
    <path id="Tracé_1659" data-name="Tracé 1659" d="M1,6.723A1,1,0,0,1,.141,5.211L2.955.489A1,1,0,0,1,3.814,0H35.428a1,1,0,0,1,.84.458L39.2,5A1,1,0,1,1,37.52,6.084L34.883,2H4.383L1.859,6.235A1,1,0,0,1,1,6.723" fill="#809fb8"/>
    <path id="Tracé_1660" data-name="Tracé 1660" d="M25.024,40h-10a1,1,0,0,1,0-2h10a1,1,0,0,1,0,2" fill="#809fb8"/>
    <path id="Tracé_1661" data-name="Tracé 1661" d="M30.024,59a1,1,0,0,1-1-1V22a1,1,0,0,1,2,0V58a1,1,0,0,1-1,1" fill="#809fb8"/>
    <path id="Tracé_1662" data-name="Tracé 1662" d="M11,26.723a1,1,0,0,1-.858-1.512l2.814-4.722A1,1,0,0,1,13.814,20H45.428a1,1,0,0,1,.84.458L49.2,25a1,1,0,1,1-1.679,1.084L44.883,22h-30.5l-2.524,4.235a1,1,0,0,1-.86.488" fill="#809fb8"/>
    <path id="Tracé_1663" data-name="Tracé 1663" d="M35.024,60h-10a1,1,0,0,1,0-2h10a1,1,0,0,1,0,2" fill="#809fb8"/>
  </g>
</svg>
