<svg xmlns="http://www.w3.org/2000/svg" xmlns:xlink="http://www.w3.org/1999/xlink" version="1.1" x="0px" y="0px" viewBox="0 0 100 125" style="enable-background:new 0 0 100 100;" xml:space="preserve"><style type="text/css">
	.st0{fill-rule:evenodd;clip-rule:evenodd;}
</style><path class="st0" d="M90,68.6H11c-3.1,0-5.6-2.5-5.6-5.6c0-3.1,2.5-5.6,5.6-5.6h79c3.1,0,5.6,2.5,5.6,5.6C95.7,66,93.1,68.6,90,68.6  z M90,43.7H11c-3.1,0-5.6-2.5-5.6-5.6s2.5-5.6,5.6-5.6h79c3.1,0,5.6,2.5,5.6,5.6S93.1,43.7,90,43.7z M90,18.9H11  c-3.1,0-5.6-2.5-5.6-5.6S7.9,7.6,11,7.6h79c3.1,0,5.6,2.5,5.6,5.6S93.1,18.9,90,18.9z M11,82.1h79c3.1,0,5.6,2.5,5.6,5.6  s-2.5,5.6-5.6,5.6H11c-3.1,0-5.6-2.5-5.6-5.6S7.9,82.1,11,82.1z"/><text x="0" y="115" fill="#000000" font-size="5px" font-weight="bold" font-family="'Helvetica Neue', Helvetica, Arial-Unicode, Arial, Sans-serif">Created by Rohith M S</text><text x="0" y="120" fill="#000000" font-size="5px" font-weight="bold" font-family="'Helvetica Neue', Helvetica, Arial-Unicode, Arial, Sans-serif">from the Noun Project</text></svg>